<?xml version="1.0" encoding="UTF-8" standalone="no"?>
<svg
   xmlns:dc="http://purl.org/dc/elements/1.1/"
   xmlns:cc="http://creativecommons.org/ns#"
   xmlns:rdf="http://www.w3.org/1999/02/22-rdf-syntax-ns#"
   xmlns:svg="http://www.w3.org/2000/svg"
   xmlns="http://www.w3.org/2000/svg"
   xmlns:sodipodi="http://sodipodi.sourceforge.net/DTD/sodipodi-0.dtd"
   xmlns:inkscape="http://www.inkscape.org/namespaces/inkscape"
   height="512"
   viewBox="0 0 512 512"
   width="512"
   version="1.1"
   id="svg44"
   sodipodi:docname="2048.svg"
   inkscape:version="0.92.1 r">
  <metadata
     id="metadata50">
    <rdf:RDF>
      <cc:Work
         rdf:about="">
        <dc:format>image/svg+xml</dc:format>
        <dc:type
           rdf:resource="http://purl.org/dc/dcmitype/StillImage" />
      </cc:Work>
    </rdf:RDF>
  </metadata>
  <defs
     id="defs48" />
  <sodipodi:namedview
     pagecolor="#ffffff"
     bordercolor="#666666"
     borderopacity="1"
     objecttolerance="10"
     gridtolerance="10"
     guidetolerance="10"
     inkscape:pageopacity="0"
     inkscape:pageshadow="2"
     inkscape:window-width="1600"
     inkscape:window-height="787"
     id="namedview46"
     showgrid="false"
     inkscape:zoom="0.32593203"
     inkscape:cx="-542.37765"
     inkscape:cy="302.30598"
     inkscape:window-x="0"
     inkscape:window-y="27"
     inkscape:window-maximized="1"
     inkscape:current-layer="g40"
     showguides="true"
     inkscape:guide-bbox="true">
    <sodipodi:guide
       position="239.3137,190.99074"
       orientation="0,1"
       id="guide4532"
       inkscape:locked="false" />
  </sodipodi:namedview>
  <path
     d="m471.95 253.05c0 120.9-98.01 218.9-218.9 218.9-120.9 0-218.9-98.01-218.9-218.9 0-120.9 98.01-218.9 218.9-218.9 120.9 0 218.9 98.01 218.9 218.9"
     id="path2"
     style="fill:#f7b701;fill-opacity:1"
     fill-rule="evenodd"
     fill="#ef6a47" />
  <g
     fill-rule="evenodd"
     id="g14">
    <path
       d="m256 1c-140.83 0-255 114.17-255 255s114.17 255 255 255 255-114.17 255-255-114.17-255-255-255m8.827 44.931c120.9 0 218.9 98 218.9 218.9s-98 218.9-218.9 218.9-218.93-98-218.93-218.9 98.03-218.9 218.93-218.9"
       fill-opacity=".067"
       id="path4" />
    <g
       fill-opacity=".129"
       id="g10">
      <path
         d="m256 4.433c-138.94 0-251.57 112.63-251.57 251.57s112.63 251.57 251.57 251.57 251.57-112.63 251.57-251.57-112.63-251.57-251.57-251.57m5.885 38.556c120.9 0 218.9 98 218.9 218.9s-98 218.9-218.9 218.9-218.93-98-218.93-218.9 98.03-218.9 218.93-218.9"
         id="path6" />
      <path
         d="m256 8.356c-136.77 0-247.64 110.87-247.64 247.64s110.87 247.64 247.64 247.64 247.64-110.87 247.64-247.64-110.87-247.64-247.64-247.64m2.942 31.691c120.9 0 218.9 98 218.9 218.9s-98 218.9-218.9 218.9-218.93-98-218.93-218.9 98.03-218.9 218.93-218.9"
         id="path8" />
    </g>
    <path
       d="m253.04 7.859c-135.42 0-245.19 109.78-245.19 245.19 0 135.42 109.78 245.19 245.19 245.19 135.42 0 245.19-109.78 245.19-245.19 0-135.42-109.78-245.19-245.19-245.19zm0 26.297c120.9 0 218.9 98 218.9 218.9s-98 218.9-218.9 218.9-218.93-98-218.93-218.9 98.03-218.9 218.93-218.9z"
       fill="#ffffff"
       stroke="#000000"
       stroke-opacity=".31"
       stroke-width="4.904"
       id="path12" />
  </g>
  <text
     x="729.64"
     y="231.36"
     id="text16" />
  <text
     x="1310.91"
     y="151.36"
     id="text18" />
  <text
     x="239.33"
     y="-29.9"
     id="text20" />
  <text
     x="1337.38"
     y="-246.37"
     id="text22" />
  <text
     x="1918.65"
     y="-326.38"
     id="text24" />
  <text
     x="1529.53"
     y="-798.78"
     id="text26" />
  <text
     x="2110.79"
     y="-878.78"
     id="text28" />
  <g
     letter-spacing="0"
     line-height="125%"
     word-spacing="0"
     id="g42">
    <text
       x="277.99"
       y="535.94"
       id="text30" />
    <g
       font-size="140.17"
       transform="matrix(1.1599,0,0,1.1599,-40.175969,-24.336)"
       id="g40"
       style="font-size:140.16999817px;font-family:Aller;fill:#ffffff">
      <text
         x="79.891884"
         y="294.80231"
         id="text34">
        <tspan
           x="79.891884"
           y="294.80231"
           id="tspan32">20</tspan>
      </text>
      <text
         x="254.00746"
         y="297.47803"
         id="text38">
        <tspan
           x="254.00746"
           y="297.47803"
           id="tspan36">48</tspan>
      </text>
    </g>
  </g>
</svg>
