<?xml version="1.0" encoding="UTF-8" standalone="no"?>
<svg
   xmlns:dc="http://purl.org/dc/elements/1.1/"
   xmlns:cc="http://creativecommons.org/ns#"
   xmlns:rdf="http://www.w3.org/1999/02/22-rdf-syntax-ns#"
   xmlns:svg="http://www.w3.org/2000/svg"
   xmlns="http://www.w3.org/2000/svg"
   xmlns:sodipodi="http://sodipodi.sourceforge.net/DTD/sodipodi-0.dtd"
   xmlns:inkscape="http://www.inkscape.org/namespaces/inkscape"
   height="512"
   viewBox="0 0 512 512"
   width="512"
   version="1.1"
   id="svg30"
   sodipodi:docname="printer.svg"
   inkscape:version="0.92.1 r">
  <metadata
     id="metadata36">
    <rdf:RDF>
      <cc:Work
         rdf:about="">
        <dc:format>image/svg+xml</dc:format>
        <dc:type
           rdf:resource="http://purl.org/dc/dcmitype/StillImage" />
      </cc:Work>
    </rdf:RDF>
  </metadata>
  <defs
     id="defs34" />
  <sodipodi:namedview
     pagecolor="#ffffff"
     bordercolor="#666666"
     borderopacity="1"
     objecttolerance="10"
     gridtolerance="10"
     guidetolerance="10"
     inkscape:pageopacity="0"
     inkscape:pageshadow="2"
     inkscape:window-width="1600"
     inkscape:window-height="787"
     id="namedview32"
     showgrid="false"
     inkscape:zoom="0.4609375"
     inkscape:cx="256"
     inkscape:cy="256"
     inkscape:window-x="0"
     inkscape:window-y="27"
     inkscape:window-maximized="1"
     inkscape:current-layer="svg30" />
  <path
     d="m471.95 253.05c0 120.9-98.01 218.9-218.9 218.9-120.9 0-218.9-98.01-218.9-218.9 0-120.9 98.01-218.9 218.9-218.9 120.9 0 218.9 98.01 218.9 218.9"
     fill="#e75177"
     fill-rule="evenodd"
     id="path2"
     style="fill:#d9d9d9;fill-opacity:1" />
  <path
     d="m186.31 116.59c-9.614 0-17.438 7.823-17.438 17.438v34.844h1v1h1v1h1v1h .969v.969h1v1h1v1h1v1h1v1h1v1h .969v.969h1v1h1v1h1v1h1v1h1v1h .969v.969h1v1h1v .531h-52.75c-9.614 0-17.438 7.792-17.438 17.406v87.13c0 5.065 2.176 9.627 5.625 12.813.296.32.618.609.938.906.339.372.693.721 1.063 1.063.319.345.654.681 1 1 .319.345.654.681 1 1 .341.37.691.724 1.063 1.063.343.368.689.725 1.063 1.063.213.226.431.442.656.656.356.398.735.762 1.125 1.125.339.372.693.721 1.063 1.063.319.345.654.681 1 1 .319.345.654.681 1 1 .341.37.691.724 1.063 1.063.298.319.586.641.906.938.296.32.618.609.938.906.339.372.693.721 1.063 1.063.319.345.654.681 1 1 .319.345.654.681 1 1 .341.37.691.724 1.063 1.063.298.319.586.641.906.938.296.32.618.609.938.906.339.372.693.721 1.063 1.063.319.345.654.681 1 1 .319.345.654.681 1 1 .341.37.691.724 1.063 1.063.298.319.586.641.906.938.296.32.618.609.938.906.32.35.653.677 1 1 .339.372.693.721 1.063 1.063.319.345.654.681 1 1 .341.37.691.724 1.063 1.063.343.368.689.725 1.063 1.063.213.226.431.442.656.656.356.398.735.762 1.125 1.125.339.372.693.721 1.063 1.063.319.345.654.681 1 1 .319.345.654.681 1 1 .341.37.691.724 1.063 1.063.298.319.586.641.906.938.296.32.618.609.938.906.339.372.693.721 1.063 1.063.319.345.654.681 1 1 .319.345.654.681 1 1 .341.37.691.724 1.063 1.063.298.319.586.641.906.938.296.32.618.609.938.906.339.372.693.721 1.063 1.063.284.308.57.62.875.906v27.656c0 5.064 2.176 9.627 5.625 12.813.296.32.618.609.938.906.339.372.693.721 1.063 1.063.319.345.654.681 1 1 .319.345.654.681 1 1 .341.37.691.724 1.063 1.063.343.368.689.725 1.063 1.063.213.226.431.442.656.656.356.397.735.762 1.125 1.125.339.372.693.721 1.063 1.063.319.345.654.681 1 1 .319.345.654.681 1 1 .341.37.691.724 1.063 1.063.298.319.586.641.906.938.296.32.618.609.938.906.339.372.693.721 1.063 1.063.319.345.654.681 1 1 .319.345.654.681 1 1 .341.37.691.724 1.063 1.063.298.319.586.641.906.938.296.32.618.609.938.906.339.372.693.721 1.063 1.063.319.345.654.681 1 1 .319.345.654.681 1 1 .341.37.691.724 1.063 1.063.298.319.586.641.906.938.296.32.618.609.938.906.32.35.653.677 1 1 .339.372.693.721 1.063 1.063.319.345.654.681 1 1 .319.345.654.681 1 1 .362.391.729.768 1.125 1.125.232.246.473.487.719.719.338.374.694.719 1.063 1.063.339.372.693.721 1.063 1.063.319.345.654.681 1 1 .319.345.654.681 1 1 .341.37.691.724 1.063 1.063.298.319.586.641.906.938.296.32.618.609.938.906.339.372.693.721 1.063 1.063.319.345.654.681 1 1 .319.345.654.681 1 1 .341.37.691.724 1.063 1.063.298.319.586.641.906.938.296.32.618.609.938.906.339.372.693.721 1.063 1.063.319.345.654.681 1 1 .319.345.654.681 1 1 .341.37.691.724 1.063 1.063.343.368.689.725 1.063 1.063.213.226.431.442.656.656.356.397.735.762 1.125 1.125.339.372.693.721 1.063 1.063.319.345.654.681 1 1 .319.345.654.681 1 1 .341.37.691.724 1.063 1.063.298.319.586.641.906.938.296.32.618.609.938.906.339.372.693.721 1.063 1.063.319.345.654.681 1 1 .319.345.654.681 1 1 .341.37.691.724 1.063 1.063.298.319.586.641.906.938.296.32.618.609.938.906.339.372.693.721 1.063 1.063.319.345.654.681 1 1 .319.345.654.681 1 1 .341.37.691.724 1.063 1.063.298.319.586.641.906.938.296.32.618.609.938.906.32.35.653.677 1 1 .339.372.693.721 1.063 1.063.319.345.654.681 1 1 .341.37.691.724 1.063 1.063.343.368.689.725 1.063 1.063.213.226.431.442.656.656.356.398.735.762 1.125 1.125.339.372.693.721 1.063 1.063.319.345.654.681 1 1 .319.345.654.681 1 1 .341.37.691.724 1.063 1.063.156.168.312.335.469.5 118.82-1.397 214.86-97.46 216.25-216.28-.032-.03-.061-.064-.094-.094-.341-.37-.691-.723-1.063-1.063-.297-.319-.586-.641-.906-.938-.296-.321-.618-.609-.938-.906-.339-.372-.693-.721-1.063-1.063-.319-.346-.655-.681-1-1-.319-.346-.655-.681-1-1-.341-.37-.691-.723-1.063-1.063-.297-.319-.586-.641-.906-.938-.296-.321-.618-.609-.938-.906-.339-.372-.693-.721-1.063-1.063-.319-.346-.655-.681-1-1-.319-.346-.655-.681-1-1-.341-.37-.691-.723-1.063-1.063-.363-.39-.727-.769-1.125-1.125-.214-.225-.431-.443-.656-.656-.337-.374-.694-.719-1.063-1.063-.339-.372-.693-.721-1.063-1.063-.319-.346-.655-.681-1-1-.319-.346-.655-.681-1-1-.341-.37-.691-.723-1.063-1.063-.297-.319-.586-.641-.906-.938-.296-.321-.618-.609-.938-.906-.339-.372-.693-.721-1.063-1.063-.319-.346-.655-.681-1-1-.319-.346-.655-.681-1-1-.341-.37-.691-.723-1.063-1.063-.297-.319-.586-.641-.906-.938-.296-.321-.618-.609-.938-.906-.339-.372-.693-.721-1.063-1.063-.319-.346-.655-.681-1-1-.319-.346-.655-.681-1-1-.341-.37-.691-.723-1.063-1.063-.343-.368-.689-.725-1.063-1.063-.213-.226-.432-.442-.656-.656-.375-.42-.774-.806-1.188-1.188-.319-.346-.655-.681-1-1-.319-.346-.655-.681-1-1-.341-.37-.691-.723-1.063-1.063-.363-.39-.727-.769-1.125-1.125-.214-.225-.431-.443-.656-.656-.337-.374-.694-.719-1.063-1.063-.339-.372-.693-.721-1.063-1.063-.319-.346-.655-.681-1-1-.319-.346-.655-.681-1-1-.341-.37-.691-.723-1.063-1.063-.297-.319-.586-.641-.906-.938-.296-.321-.618-.609-.938-.906-.339-.372-.693-.721-1.063-1.063-.319-.346-.655-.681-1-1-.319-.346-.655-.681-1-1-.341-.37-.691-.723-1.063-1.063-.297-.319-.586-.641-.906-.938-.296-.321-.618-.609-.938-.906-.339-.372-.693-.721-1.063-1.063-.319-.346-.655-.681-1-1-.319-.346-.655-.681-1-1-.341-.37-.691-.723-1.063-1.063-.363-.39-.727-.769-1.125-1.125-.214-.225-.431-.443-.656-.656-.337-.374-.694-.719-1.063-1.063-.339-.372-.693-.721-1.063-1.063-.319-.346-.655-.681-1-1-.319-.346-.655-.681-1-1-.341-.37-.691-.723-1.063-1.063-.297-.319-.586-.641-.906-.938-.296-.321-.618-.609-.938-.906-.339-.372-.693-.721-1.063-1.063-.319-.346-.655-.681-1-1-.319-.346-.655-.681-1-1-.341-.37-.691-.723-1.063-1.063-.297-.319-.586-.641-.906-.938-.296-.321-.618-.609-.938-.906-.339-.372-.693-.721-1.063-1.063-.319-.346-.655-.681-1-1-.319-.346-.655-.681-1-1-.341-.37-.691-.723-1.063-1.063-.297-.319-.586-.641-.906-.938-.296-.321-.618-.609-.938-.906-.339-.372-.693-.721-1.063-1.063-.319-.346-.655-.681-1-1-.319-.346-.655-.681-1-1-.341-.37-.691-.723-1.063-1.063-.363-.39-.727-.769-1.125-1.125-.214-.225-.431-.443-.656-.656-.337-.374-.694-.719-1.063-1.063-.339-.372-.693-.721-1.063-1.063-.319-.346-.655-.681-1-1-.319-.346-.655-.681-1-1-.341-.37-.691-.723-1.063-1.063-.297-.319-.586-.641-.906-.938-.296-.321-.618-.609-.938-.906-.339-.372-.693-.721-1.063-1.063-.319-.346-.655-.681-1-1-.319-.346-.655-.681-1-1-.341-.37-.691-.723-1.063-1.063-.297-.319-.586-.641-.906-.938-.296-.321-.618-.609-.938-.906-.339-.372-.693-.721-1.063-1.063-.319-.346-.655-.681-1-1-.319-.346-.655-.681-1-1-.341-.37-.691-.723-1.063-1.063-.363-.39-.727-.769-1.125-1.125-.214-.225-.431-.443-.656-.656-.337-.374-.694-.719-1.063-1.063-.339-.372-.693-.721-1.063-1.063-.319-.346-.655-.681-1-1-.319-.346-.655-.681-1-1-.341-.37-.691-.723-1.063-1.063-.297-.319-.586-.641-.906-.938-.296-.321-.618-.609-.938-.906-.339-.372-.693-.721-1.063-1.063-.319-.346-.655-.681-1-1-.319-.346-.655-.681-1-1-.341-.37-.691-.723-1.063-1.063-.297-.319-.586-.641-.906-.938-.296-.321-.618-.609-.938-.906-.339-.372-.693-.721-1.063-1.063-.319-.346-.655-.681-1-1-.319-.346-.655-.681-1-1-.341-.37-.691-.723-1.063-1.063-.297-.319-.586-.641-.906-.938-.296-.321-.618-.609-.938-.906-.339-.372-.693-.721-1.063-1.063-.319-.346-.655-.681-1-1-.319-.346-.655-.681-1-1-.341-.37-.691-.723-1.063-1.063-.363-.39-.727-.769-1.125-1.125-.214-.225-.431-.443-.656-.656-.337-.374-.694-.719-1.063-1.063-.339-.372-.693-.721-1.063-1.063-.319-.346-.655-.681-1-1-.319-.346-.655-.681-1-1-.341-.37-.691-.723-1.063-1.063-.297-.319-.586-.641-.906-.938-3.186-3.449-7.748-5.625-12.813-5.625h-139.37"
     fill-opacity=".235"
     id="path4" />
  <g
     fill-rule="evenodd"
     id="g16">
    <path
       d="m256 1c-140.83 0-255 114.17-255 255s114.17 255 255 255 255-114.17 255-255-114.17-255-255-255m8.827 44.931c120.9 0 218.9 98 218.9 218.9s-98 218.9-218.9 218.9-218.93-98-218.93-218.9 98.03-218.9 218.93-218.9"
       fill-opacity=".067"
       id="path6" />
    <g
       fill-opacity=".129"
       id="g12">
      <path
         d="m256 4.433c-138.94 0-251.57 112.63-251.57 251.57s112.63 251.57 251.57 251.57 251.57-112.63 251.57-251.57-112.63-251.57-251.57-251.57m5.885 38.556c120.9 0 218.9 98 218.9 218.9s-98 218.9-218.9 218.9-218.93-98-218.93-218.9 98.03-218.9 218.93-218.9"
         id="path8" />
      <path
         d="m256 8.356c-136.77 0-247.64 110.87-247.64 247.64s110.87 247.64 247.64 247.64 247.64-110.87 247.64-247.64-110.87-247.64-247.64-247.64m2.942 31.691c120.9 0 218.9 98 218.9 218.9s-98 218.9-218.9 218.9-218.93-98-218.93-218.9 98.03-218.9 218.93-218.9"
         id="path10" />
    </g>
    <path
       d="m253.04 7.859c-135.42 0-245.19 109.78-245.19 245.19 0 135.42 109.78 245.19 245.19 245.19 135.42 0 245.19-109.78 245.19-245.19 0-135.42-109.78-245.19-245.19-245.19zm0 26.297c120.9 0 218.9 98 218.9 218.9s-98 218.9-218.9 218.9-218.93-98-218.93-218.9 98.03-218.9 218.93-218.9z"
       fill="#ffffff"
       stroke="#000000"
       stroke-opacity=".31"
       stroke-width="4.904"
       id="path14" />
  </g>
  <g
     fill="#ffffff"
     transform="matrix(.54454 0 0 .54454 116.6 116.6)"
     id="g28">
    <path
       d="m128 32h256v64h32v-64c0-17.656-14.31-32-32-32h-256c-17.66 0-32 14.344-32 32v64h32z"
       id="path18" />
    <path
       d="m480 128h-448c-17.656 0-32 14.34-32 32v160c0 17.688 14.344 32 32 32h64v128c0 17.688 14.344 32 32 32h256c17.688 0 32-14.313 32-32v-128h64c17.688 0 32-14.313 32-32v-160c0-17.656-14.312-32-32-32m-96 352h-256v-224h256zm64-256c-17.688 0-32-14.313-32-32 0-17.656 14.313-32 32-32s32 14.344 32 32c0 17.688-14.312 32-32 32"
       id="path20" />
    <path
       d="m160 288h128v32h-128z"
       id="path22" />
    <path
       d="m160 352h192v32h-192z"
       id="path24" />
    <path
       d="m160 416h192v32h-192z"
       id="path26" />
  </g>
</svg>
