<?xml version="1.0" encoding="UTF-8" standalone="no"?>
<svg
   xmlns:dc="http://purl.org/dc/elements/1.1/"
   xmlns:cc="http://creativecommons.org/ns#"
   xmlns:rdf="http://www.w3.org/1999/02/22-rdf-syntax-ns#"
   xmlns:svg="http://www.w3.org/2000/svg"
   xmlns="http://www.w3.org/2000/svg"
   xmlns:sodipodi="http://sodipodi.sourceforge.net/DTD/sodipodi-0.dtd"
   xmlns:inkscape="http://www.inkscape.org/namespaces/inkscape"
   height="512"
   viewBox="0 0 512 512"
   width="512"
   version="1.1"
   id="svg32"
   sodipodi:docname="screenshot.svg"
   inkscape:version="0.92.1 r">
  <metadata
     id="metadata38">
    <rdf:RDF>
      <cc:Work
         rdf:about="">
        <dc:format>image/svg+xml</dc:format>
        <dc:type
           rdf:resource="http://purl.org/dc/dcmitype/StillImage" />
      </cc:Work>
    </rdf:RDF>
  </metadata>
  <defs
     id="defs36" />
  <sodipodi:namedview
     pagecolor="#ffffff"
     bordercolor="#666666"
     borderopacity="1"
     objecttolerance="10"
     gridtolerance="10"
     guidetolerance="10"
     inkscape:pageopacity="0"
     inkscape:pageshadow="2"
     inkscape:window-width="1600"
     inkscape:window-height="787"
     id="namedview34"
     showgrid="false"
     inkscape:zoom="0.4609375"
     inkscape:cx="256"
     inkscape:cy="256"
     inkscape:window-x="0"
     inkscape:window-y="27"
     inkscape:window-maximized="1"
     inkscape:current-layer="svg32" />
  <path
     d="m471.95 253.05c0 120.9-98.01 218.9-218.9 218.9-120.9 0-218.9-98.01-218.9-218.9 0-120.9 98.01-218.9 218.9-218.9 120.9 0 218.9 98.01 218.9 218.9"
     fill="#3f5081"
     fill-rule="evenodd"
     id="path2"
     style="fill:#e04b4b;fill-opacity:1" />
  <path
     d="m395.93221 129.08474l67.25424 26.03389 8.67797 146.44069-30.37288 73.76271-64.00001 60.74577-248.40678-61.83051 17.45699-251.55103 107.40652 18.08062 75.84514 5.05309z"
     fill-rule="evenodd"
     opacity=".25"
     stroke="#000000"
     id="path4" />
  <path
     d="m256 1c-140.83 0-255 114.17-255 255 0 140.83 114.17 255 255 255 140.83 0 255-114.17 255-255 0-140.83-114.17-255-255-255m8.827 44.931c120.9 0 218.9 98 218.9 218.9 0 120.9-98 218.9-218.9 218.9-120.9 0-218.93-98-218.93-218.9 0-120.9 98.03-218.9 218.93-218.9"
     fill-opacity=".067"
     fill-rule="evenodd"
     id="path6" />
  <g
     fill-opacity=".129"
     fill-rule="evenodd"
     id="g12">
    <path
       d="m256 4.433c-138.94 0-251.57 112.63-251.57 251.57 0 138.94 112.63 251.57 251.57 251.57 138.94 0 251.57-112.63 251.57-251.57 0-138.94-112.63-251.57-251.57-251.57m5.885 38.556c120.9 0 218.9 98 218.9 218.9 0 120.9-98 218.9-218.9 218.9-120.9 0-218.93-98-218.93-218.9 0-120.9 98.03-218.9 218.93-218.9"
       id="path8" />
    <path
       d="m256 8.356c-136.77 0-247.64 110.87-247.64 247.64 0 136.77 110.87 247.64 247.64 247.64 136.77 0 247.64-110.87 247.64-247.64 0-136.77-110.87-247.64-247.64-247.64m2.942 31.691c120.9 0 218.9 98 218.9 218.9 0 120.9-98 218.9-218.9 218.9-120.9 0-218.93-98-218.93-218.9 0-120.9 98.03-218.9 218.93-218.9"
       id="path10" />
  </g>
  <path
     d="m253.04 7.859c-135.42 0-245.19 109.78-245.19 245.19 0 135.42 109.78 245.19 245.19 245.19 135.42 0 245.19-109.78 245.19-245.19 0-135.42-109.78-245.19-245.19-245.19zm0 26.297c120.9 0 218.9 98 218.9 218.9 0 120.9-98 218.9-218.9 218.9-120.9 0-218.93-98-218.93-218.9 0-120.9 98.03-218.9 218.93-218.9z"
     fill="#ffffff"
     fill-rule="evenodd"
     stroke="#000000"
     stroke-opacity=".31"
     stroke-width="4.904"
     id="path14" />
  <ellipse
     cx="228.885"
     cy="211.581"
     fill="#bcc5de"
     overflow="visible"
     rx="40.982"
     ry="35.527"
     id="ellipse16"
     style="fill:#ffffff;fill-opacity:1" />
  <rect
     fill="none"
     height="202.189"
     overflow="visible"
     rx="12.713"
     ry="11.02"
     stroke="#ffffff"
     stroke-width="17.915"
     width="233.236"
     x="142.64"
     y="148.4"
     id="rect18" />
  <path
     d="m354.70771 272.75198c-8.65602-.12593-16.8474 2.88866-23.9761 10.03392l-50.95862 51.0818h61.08213c3.48573-6.77167 8.29387-10.33053 15.80676-13.20031v-47.7851c-.65167-.0442-1.30709-.12093-1.95417-.13031z"
     fill="#bcc5de"
     id="path20"
     style="fill:#ffffff;fill-opacity:1" />
  <path
     d="m192.88779 285.26181c-10.05639.093-20.60818 2.35272-31.04119 6.25491v28.08196c5.9455 2.50751 12.42686 6.74528 16.46009 14.26902h101.4663c-11.70436-35.61953-62.08406-48.83514-86.8852-48.60589z"
     fill="#bcc5de"
     id="path22"
     style="fill:#ffffff;fill-opacity:1" />
  <ellipse
     cx="375.872"
     cy="148.397"
     fill="#ffffff"
     overflow="visible"
     rx="30.064"
     ry="26.062"
     id="ellipse24" />
  <ellipse
     cx="142.636"
     cy="148.397"
     fill="#ffffff"
     overflow="visible"
     rx="30.064"
     ry="26.062"
     id="ellipse26" />
  <ellipse
     cx="375.872"
     cy="350.586"
     fill="#ffffff"
     overflow="visible"
     rx="30.064"
     ry="26.062"
     id="ellipse28" />
  <ellipse
     cx="142.636"
     cy="350.586"
     fill="#ffffff"
     overflow="visible"
     rx="30.064"
     ry="26.062"
     id="ellipse30" />
</svg>
